<?xml version="1.0" standalone="no"?>
<!DOCTYPE svg PUBLIC "-//W3C//DTD SVG 20010904//EN"
 "http://www.w3.org/TR/2001/REC-SVG-20010904/DTD/svg10.dtd">
<svg version="1.0" xmlns="http://www.w3.org/2000/svg"
 width="125.000000pt" height="137.000000pt" viewBox="0 0 125.000000 137.000000"
 preserveAspectRatio="xMidYMid meet">

<g transform="translate(0.000000,137.000000) scale(0.100000,-0.100000)"
fill="#000000" stroke="none">
<path d="M480 1100 c-11 -11 -20 -26 -20 -33 0 -7 20 -46 45 -87 53 -89 56
-104 18 -97 -16 2 -60 10 -99 17 -85 15 -127 2 -132 -41 -4 -37 17 -50 100
-60 39 -5 76 -13 81 -18 6 -6 -16 -28 -54 -58 -34 -26 -71 -56 -81 -65 -23
-23 -23 -60 0 -81 37 -33 65 -21 209 89 46 35 94 66 106 70 35 8 64 -8 160
-85 48 -39 96 -71 107 -71 32 0 51 12 61 36 13 36 -5 65 -62 99 -56 33 -106
81 -96 92 4 3 48 6 98 4 101 -2 119 5 119 50 0 44 -28 52 -141 41 -143 -14
-150 -4 -59 80 33 30 60 61 60 69 0 28 -26 52 -56 52 -23 0 -43 -16 -101 -77
l-72 -76 -56 75 c-46 63 -84 95 -111 95 -2 0 -13 -9 -24 -20z"/>
<path d="M650 683 c-33 -13 -41 -37 -34 -101 4 -48 1 -79 -17 -137 -17 -58
-20 -82 -13 -107 9 -30 14 -34 64 -42 49 -7 56 -6 71 13 34 42 33 184 -2 323
-8 31 -35 61 -51 57 -2 0 -10 -3 -18 -6z"/>
</g>
</svg>
