<?xml version="1.0" standalone="no"?>
<!DOCTYPE svg PUBLIC "-//W3C//DTD SVG 20010904//EN"
 "http://www.w3.org/TR/2001/REC-SVG-20010904/DTD/svg10.dtd">
<svg version="1.0" xmlns="http://www.w3.org/2000/svg"
 width="409.000000pt" height="199.000000pt" viewBox="0 0 409.000000 199.000000"
 preserveAspectRatio="xMidYMid meet">

<g transform="translate(0.000000,199.000000) scale(0.100000,-0.100000)"
fill="#000000" stroke="none">
<path d="M1807 1852 c-27 -29 -20 -58 28 -133 42 -65 55 -99 38 -99 -5 1 -35
7 -68 15 -73 18 -167 19 -183 3 -17 -17 -15 -54 3 -72 8 -8 37 -18 63 -21 96
-12 112 -16 112 -29 0 -6 -29 -34 -65 -60 -94 -69 -114 -105 -79 -140 34 -34
73 -20 194 69 63 47 124 88 135 91 32 8 65 -9 150 -77 120 -95 148 -103 182
-53 24 38 10 67 -54 107 -32 19 -69 47 -83 62 -35 37 -15 47 90 40 47 -3 90
-2 97 2 6 5 14 20 18 35 10 38 -26 72 -68 64 -18 -3 -69 -8 -113 -12 -111 -9
-115 2 -30 81 36 34 66 69 66 78 0 19 -34 57 -50 57 -26 0 -72 -34 -119 -87
-28 -31 -51 -61 -51 -65 0 -23 -25 -1 -74 66 -72 98 -105 116 -139 78z"/>
<path d="M1966 1409 c-27 -21 -28 -24 -21 -93 5 -57 2 -84 -14 -136 -38 -119
-26 -148 62 -157 l57 -6 15 36 c8 20 15 66 15 104 0 67 -25 229 -38 250 -15
23 -49 23 -76 2z"/>
<path d="M2344 956 c-19 -19 -34 -43 -34 -55 0 -19 6 -21 68 -21 l67 0 -52
-24 c-78 -37 -83 -53 -83 -251 l0 -165 85 0 85 0 0 275 0 275 -51 0 c-45 0
-55 -4 -85 -34z"/>
<path d="M1063 876 c-134 -34 -204 -145 -174 -274 17 -68 59 -116 129 -143 50
-21 75 -23 212 -24 126 0 165 3 209 19 73 25 125 79 141 144 28 120 -28 226
-145 273 -45 18 -308 21 -372 5z m313 -159 c31 -37 31 -81 -1 -112 -23 -24
-30 -25 -140 -25 -110 0 -117 1 -140 25 -31 30 -32 73 -5 108 26 32 42 36 164
33 94 -2 100 -3 122 -29z"/>
<path d="M3353 880 c-134 -28 -163 -81 -163 -295 l0 -145 89 0 90 0 3 43 3 42
140 0 140 0 3 -42 3 -43 90 0 89 0 0 143 c-1 195 -18 239 -110 280 -37 17 -69
21 -190 23 -80 2 -164 -1 -187 -6z m293 -155 c8 -11 14 -31 12 -45 l-3 -25
-142 -3 -143 -3 0 29 c0 30 16 56 40 66 8 3 61 4 118 3 91 -2 105 -5 118 -22z"/>
<path d="M210 661 l0 -221 90 0 89 0 3 58 3 57 180 5 c168 5 183 7 219 29 40
25 76 86 76 131 0 45 -36 106 -76 131 -38 24 -44 24 -311 27 l-273 3 0 -220z
m458 52 c3 -23 3 -23 -137 -23 l-141 0 0 25 0 26 138 -3 c134 -3 137 -4 140
-25z"/>
<path d="M1610 660 l0 -220 90 0 90 0 0 117 0 118 118 -118 117 -117 118 0
117 0 0 220 0 220 -90 0 -90 0 0 -117 0 -118 -118 118 -117 117 -118 0 -117 0
0 -220z"/>
<path d="M2510 660 l0 -220 90 0 89 0 3 58 3 57 100 0 99 0 31 -55 31 -55 108
-3 108 -3 -39 71 -40 71 33 33 c82 82 41 224 -74 256 -21 5 -147 10 -289 10
l-253 0 0 -220z m457 69 c6 -6 9 -18 6 -25 -4 -11 -35 -14 -144 -14 l-139 0 0
25 0 25 133 0 c85 0 137 -4 144 -11z"/>
</g>
</svg>
